<mxfile host="app.diagrams.net" agent="Mozilla/5.0 (Windows NT 10.0; Win64; x64) AppleWebKit/537.36 (KHTML, like Gecko) Chrome/135.0.0.0 Safari/537.36" version="26.2.12">
  <diagram name="Page-1" id="13e1069c-82ec-6db2-03f1-153e76fe0fe0">
    <mxGraphModel dx="1589" dy="907" grid="1" gridSize="10" guides="1" tooltips="1" connect="1" arrows="1" fold="1" page="1" pageScale="1" pageWidth="1100" pageHeight="850" background="none" math="0" shadow="0">
      <root>
        <mxCell id="0" />
        <mxCell id="1" parent="0" />
        <mxCell id="7baba1c4bc27f4b0-2" value="sistem" style="shape=umlLifeline;perimeter=lifelinePerimeter;whiteSpace=wrap;html=1;container=1;collapsible=0;recursiveResize=0;outlineConnect=0;rounded=1;shadow=0;comic=0;labelBackgroundColor=none;strokeWidth=1;fontFamily=Verdana;fontSize=12;align=center;" parent="1" vertex="1">
          <mxGeometry x="440" y="190" width="100" height="580" as="geometry" />
        </mxCell>
        <mxCell id="7baba1c4bc27f4b0-34" value="" style="html=1;points=[];perimeter=orthogonalPerimeter;rounded=0;shadow=0;comic=0;labelBackgroundColor=none;strokeWidth=1;fontFamily=Verdana;fontSize=12;align=center;" parent="7baba1c4bc27f4b0-2" vertex="1">
          <mxGeometry x="45" y="270" width="10" height="270" as="geometry" />
        </mxCell>
        <mxCell id="7baba1c4bc27f4b0-3" value="Homepage" style="shape=umlLifeline;perimeter=lifelinePerimeter;whiteSpace=wrap;html=1;container=1;collapsible=0;recursiveResize=0;outlineConnect=0;rounded=1;shadow=0;comic=0;labelBackgroundColor=none;strokeWidth=1;fontFamily=Verdana;fontSize=12;align=center;" parent="1" vertex="1">
          <mxGeometry x="680" y="190" width="100" height="580" as="geometry" />
        </mxCell>
        <mxCell id="7baba1c4bc27f4b0-19" value="" style="html=1;points=[];perimeter=orthogonalPerimeter;rounded=0;shadow=0;comic=0;labelBackgroundColor=none;strokeWidth=1;fontFamily=Verdana;fontSize=12;align=center;" parent="7baba1c4bc27f4b0-3" vertex="1">
          <mxGeometry x="45" y="330" width="10" height="200" as="geometry" />
        </mxCell>
        <mxCell id="7baba1c4bc27f4b0-8" value="Halaman Login" style="shape=umlLifeline;perimeter=lifelinePerimeter;whiteSpace=wrap;html=1;container=1;collapsible=0;recursiveResize=0;outlineConnect=0;rounded=1;shadow=0;comic=0;labelBackgroundColor=none;strokeWidth=1;fontFamily=Verdana;fontSize=12;align=center;" parent="1" vertex="1">
          <mxGeometry x="200" y="190" width="100" height="580" as="geometry" />
        </mxCell>
        <mxCell id="7baba1c4bc27f4b0-10" value="" style="html=1;points=[];perimeter=orthogonalPerimeter;rounded=0;shadow=0;comic=0;labelBackgroundColor=none;strokeWidth=1;fontFamily=Verdana;fontSize=12;align=center;" parent="7baba1c4bc27f4b0-8" vertex="1">
          <mxGeometry x="45" y="100" width="10" height="440" as="geometry" />
        </mxCell>
        <mxCell id="7baba1c4bc27f4b0-30" value="5. Tampilkan peringatan" style="html=1;verticalAlign=bottom;endArrow=open;dashed=1;endSize=8;labelBackgroundColor=none;fontFamily=Verdana;fontSize=12;edgeStyle=elbowEdgeStyle;elbow=vertical;entryX=-0.3;entryY=0.55;entryDx=0;entryDy=0;entryPerimeter=0;" parent="1" edge="1">
          <mxGeometry relative="1" as="geometry">
            <mxPoint x="242" y="581" as="targetPoint" />
            <Array as="points">
              <mxPoint x="380.5" y="581.22" />
            </Array>
            <mxPoint x="490" y="581" as="sourcePoint" />
          </mxGeometry>
        </mxCell>
        <mxCell id="7baba1c4bc27f4b0-14" value="1. Input username &amp;amp; pass" style="html=1;verticalAlign=bottom;endArrow=block;labelBackgroundColor=none;fontFamily=Verdana;fontSize=12;edgeStyle=elbowEdgeStyle;elbow=vertical;exitX=1;exitY=0.095;exitDx=0;exitDy=0;exitPerimeter=0;" parent="1" source="v8SrvTkJTN9Mk07ZefnR-3" target="7baba1c4bc27f4b0-8" edge="1">
          <mxGeometry relative="1" as="geometry">
            <mxPoint x="370" y="200" as="sourcePoint" />
          </mxGeometry>
        </mxCell>
        <mxCell id="v8SrvTkJTN9Mk07ZefnR-1" value="masyarakat" style="shape=umlActor;verticalLabelPosition=bottom;verticalAlign=top;html=1;outlineConnect=0;" parent="1" vertex="1">
          <mxGeometry x="40" y="180" width="30" height="60" as="geometry" />
        </mxCell>
        <mxCell id="v8SrvTkJTN9Mk07ZefnR-3" value="" style="html=1;points=[];perimeter=orthogonalPerimeter;rounded=0;shadow=0;comic=0;labelBackgroundColor=none;strokeWidth=1;fontFamily=Verdana;fontSize=12;align=center;" parent="1" vertex="1">
          <mxGeometry x="50" y="270" width="10" height="470" as="geometry" />
        </mxCell>
        <mxCell id="v8SrvTkJTN9Mk07ZefnR-6" value="2. Menekan tombol login" style="html=1;verticalAlign=bottom;endArrow=block;labelBackgroundColor=none;fontFamily=Verdana;fontSize=12;edgeStyle=elbowEdgeStyle;elbow=vertical;exitX=1.1;exitY=0.295;exitDx=0;exitDy=0;exitPerimeter=0;" parent="1" edge="1">
          <mxGeometry relative="1" as="geometry">
            <mxPoint x="60" y="370" as="sourcePoint" />
            <mxPoint x="248.5" y="370.15" as="targetPoint" />
          </mxGeometry>
        </mxCell>
        <mxCell id="v8SrvTkJTN9Mk07ZefnR-7" value="3. Verifikasi Data username &amp;amp; pass" style="html=1;verticalAlign=bottom;endArrow=block;labelBackgroundColor=none;fontFamily=Verdana;fontSize=12;edgeStyle=elbowEdgeStyle;elbow=vertical;" parent="1" source="7baba1c4bc27f4b0-8" target="7baba1c4bc27f4b0-2" edge="1">
          <mxGeometry relative="1" as="geometry">
            <mxPoint x="82" y="377" as="sourcePoint" />
            <mxPoint x="270" y="377" as="targetPoint" />
          </mxGeometry>
        </mxCell>
        <mxCell id="v8SrvTkJTN9Mk07ZefnR-16" value="4. Tampilkan Homepage" style="html=1;verticalAlign=bottom;endArrow=block;labelBackgroundColor=none;fontFamily=Verdana;fontSize=12;edgeStyle=elbowEdgeStyle;elbow=vertical;exitX=0.865;exitY=0.258;exitDx=0;exitDy=0;exitPerimeter=0;" parent="1" source="7baba1c4bc27f4b0-34" edge="1">
          <mxGeometry relative="1" as="geometry">
            <mxPoint x="510" y="530" as="sourcePoint" />
            <mxPoint x="729.5" y="530" as="targetPoint" />
            <Array as="points">
              <mxPoint x="620" y="530" />
            </Array>
          </mxGeometry>
        </mxCell>
        <mxCell id="v8SrvTkJTN9Mk07ZefnR-17" value="6. pencet tombol Logout" style="html=1;verticalAlign=bottom;endArrow=block;labelBackgroundColor=none;fontFamily=Verdana;fontSize=12;edgeStyle=elbowEdgeStyle;elbow=vertical;entryX=0.4;entryY=0.55;entryDx=0;entryDy=0;entryPerimeter=0;exitX=0.924;exitY=0.63;exitDx=0;exitDy=0;exitPerimeter=0;" parent="1" source="7baba1c4bc27f4b0-34" target="7baba1c4bc27f4b0-19" edge="1">
          <mxGeometry relative="1" as="geometry">
            <mxPoint x="510" y="630" as="sourcePoint" />
            <mxPoint x="724" y="630" as="targetPoint" />
            <Array as="points">
              <mxPoint x="620" y="630" />
            </Array>
          </mxGeometry>
        </mxCell>
        <mxCell id="v8SrvTkJTN9Mk07ZefnR-19" value="7. Session end" style="html=1;verticalAlign=bottom;endArrow=block;labelBackgroundColor=none;fontFamily=Verdana;fontSize=12;edgeStyle=elbowEdgeStyle;elbow=vertical;exitX=0.747;exitY=0.885;exitDx=0;exitDy=0;exitPerimeter=0;" parent="1" source="7baba1c4bc27f4b0-34" edge="1">
          <mxGeometry relative="1" as="geometry">
            <mxPoint x="500" y="700" as="sourcePoint" />
            <mxPoint x="730" y="700" as="targetPoint" />
            <Array as="points">
              <mxPoint x="640" y="700" />
            </Array>
          </mxGeometry>
        </mxCell>
        <mxCell id="d5MMunfK_eNaK3rZYrZa-1" value="sistem" style="shape=umlLifeline;perimeter=lifelinePerimeter;whiteSpace=wrap;html=1;container=1;collapsible=0;recursiveResize=0;outlineConnect=0;rounded=1;shadow=0;comic=0;labelBackgroundColor=none;strokeWidth=1;fontFamily=Verdana;fontSize=12;align=center;" vertex="1" parent="1">
          <mxGeometry x="440" y="190" width="100" height="580" as="geometry" />
        </mxCell>
        <mxCell id="d5MMunfK_eNaK3rZYrZa-2" value="" style="html=1;points=[];perimeter=orthogonalPerimeter;rounded=0;shadow=0;comic=0;labelBackgroundColor=none;strokeWidth=1;fontFamily=Verdana;fontSize=12;align=center;" vertex="1" parent="d5MMunfK_eNaK3rZYrZa-1">
          <mxGeometry x="45" y="270" width="10" height="270" as="geometry" />
        </mxCell>
        <mxCell id="d5MMunfK_eNaK3rZYrZa-3" value="Homepage" style="shape=umlLifeline;perimeter=lifelinePerimeter;whiteSpace=wrap;html=1;container=1;collapsible=0;recursiveResize=0;outlineConnect=0;rounded=1;shadow=0;comic=0;labelBackgroundColor=none;strokeWidth=1;fontFamily=Verdana;fontSize=12;align=center;" vertex="1" parent="1">
          <mxGeometry x="680" y="190" width="100" height="580" as="geometry" />
        </mxCell>
        <mxCell id="d5MMunfK_eNaK3rZYrZa-4" value="" style="html=1;points=[];perimeter=orthogonalPerimeter;rounded=0;shadow=0;comic=0;labelBackgroundColor=none;strokeWidth=1;fontFamily=Verdana;fontSize=12;align=center;" vertex="1" parent="d5MMunfK_eNaK3rZYrZa-3">
          <mxGeometry x="45" y="330" width="10" height="200" as="geometry" />
        </mxCell>
        <mxCell id="d5MMunfK_eNaK3rZYrZa-5" value="Halaman Login" style="shape=umlLifeline;perimeter=lifelinePerimeter;whiteSpace=wrap;html=1;container=1;collapsible=0;recursiveResize=0;outlineConnect=0;rounded=1;shadow=0;comic=0;labelBackgroundColor=none;strokeWidth=1;fontFamily=Verdana;fontSize=12;align=center;" vertex="1" parent="1">
          <mxGeometry x="200" y="190" width="100" height="580" as="geometry" />
        </mxCell>
        <mxCell id="d5MMunfK_eNaK3rZYrZa-6" value="" style="html=1;points=[];perimeter=orthogonalPerimeter;rounded=0;shadow=0;comic=0;labelBackgroundColor=none;strokeWidth=1;fontFamily=Verdana;fontSize=12;align=center;" vertex="1" parent="d5MMunfK_eNaK3rZYrZa-5">
          <mxGeometry x="45" y="100" width="10" height="380" as="geometry" />
        </mxCell>
        <mxCell id="d5MMunfK_eNaK3rZYrZa-7" value="5. Tampilkan pesan kesalahan" style="html=1;verticalAlign=bottom;endArrow=open;dashed=1;endSize=8;labelBackgroundColor=none;fontFamily=Verdana;fontSize=12;edgeStyle=elbowEdgeStyle;elbow=vertical;entryX=-0.3;entryY=0.55;entryDx=0;entryDy=0;entryPerimeter=0;" edge="1" parent="1">
          <mxGeometry relative="1" as="geometry">
            <mxPoint x="242" y="581" as="targetPoint" />
            <Array as="points">
              <mxPoint x="380.5" y="581.22" />
            </Array>
            <mxPoint x="490" y="581" as="sourcePoint" />
          </mxGeometry>
        </mxCell>
        <mxCell id="d5MMunfK_eNaK3rZYrZa-8" value="1. Input username &amp;amp; pass" style="html=1;verticalAlign=bottom;endArrow=block;labelBackgroundColor=none;fontFamily=Verdana;fontSize=12;edgeStyle=elbowEdgeStyle;elbow=vertical;exitX=1;exitY=0.095;exitDx=0;exitDy=0;exitPerimeter=0;" edge="1" parent="1" source="d5MMunfK_eNaK3rZYrZa-10" target="d5MMunfK_eNaK3rZYrZa-5">
          <mxGeometry relative="1" as="geometry">
            <mxPoint x="370" y="200" as="sourcePoint" />
          </mxGeometry>
        </mxCell>
        <mxCell id="d5MMunfK_eNaK3rZYrZa-9" value="masyarakat" style="shape=umlActor;verticalLabelPosition=bottom;verticalAlign=top;html=1;outlineConnect=0;" vertex="1" parent="1">
          <mxGeometry x="40" y="180" width="30" height="60" as="geometry" />
        </mxCell>
        <mxCell id="d5MMunfK_eNaK3rZYrZa-10" value="" style="html=1;points=[];perimeter=orthogonalPerimeter;rounded=0;shadow=0;comic=0;labelBackgroundColor=none;strokeWidth=1;fontFamily=Verdana;fontSize=12;align=center;" vertex="1" parent="1">
          <mxGeometry x="50" y="270" width="10" height="470" as="geometry" />
        </mxCell>
        <mxCell id="d5MMunfK_eNaK3rZYrZa-11" value="2. Menekan tombol login" style="html=1;verticalAlign=bottom;endArrow=block;labelBackgroundColor=none;fontFamily=Verdana;fontSize=12;edgeStyle=elbowEdgeStyle;elbow=vertical;exitX=1.1;exitY=0.295;exitDx=0;exitDy=0;exitPerimeter=0;" edge="1" parent="1">
          <mxGeometry relative="1" as="geometry">
            <mxPoint x="60" y="370" as="sourcePoint" />
            <mxPoint x="248.5" y="370.15" as="targetPoint" />
          </mxGeometry>
        </mxCell>
        <mxCell id="d5MMunfK_eNaK3rZYrZa-12" value="3. Verifikasi Data username &amp;amp; pass" style="html=1;verticalAlign=bottom;endArrow=block;labelBackgroundColor=none;fontFamily=Verdana;fontSize=12;edgeStyle=elbowEdgeStyle;elbow=vertical;" edge="1" parent="1" source="d5MMunfK_eNaK3rZYrZa-5" target="d5MMunfK_eNaK3rZYrZa-1">
          <mxGeometry relative="1" as="geometry">
            <mxPoint x="82" y="377" as="sourcePoint" />
            <mxPoint x="270" y="377" as="targetPoint" />
          </mxGeometry>
        </mxCell>
        <mxCell id="d5MMunfK_eNaK3rZYrZa-13" value="4. Tampilkan Homepage" style="html=1;verticalAlign=bottom;endArrow=block;labelBackgroundColor=none;fontFamily=Verdana;fontSize=12;edgeStyle=elbowEdgeStyle;elbow=vertical;exitX=0.865;exitY=0.258;exitDx=0;exitDy=0;exitPerimeter=0;" edge="1" parent="1" source="d5MMunfK_eNaK3rZYrZa-2">
          <mxGeometry relative="1" as="geometry">
            <mxPoint x="510" y="530" as="sourcePoint" />
            <mxPoint x="729.5" y="530" as="targetPoint" />
            <Array as="points">
              <mxPoint x="620" y="530" />
            </Array>
          </mxGeometry>
        </mxCell>
        <mxCell id="d5MMunfK_eNaK3rZYrZa-14" value="sistem" style="shape=umlLifeline;perimeter=lifelinePerimeter;whiteSpace=wrap;html=1;container=1;collapsible=0;recursiveResize=0;outlineConnect=0;rounded=1;shadow=0;comic=0;labelBackgroundColor=none;strokeWidth=1;fontFamily=Verdana;fontSize=12;align=center;" vertex="1" parent="1">
          <mxGeometry x="1410" y="180" width="100" height="580" as="geometry" />
        </mxCell>
        <mxCell id="d5MMunfK_eNaK3rZYrZa-15" value="" style="html=1;points=[];perimeter=orthogonalPerimeter;rounded=0;shadow=0;comic=0;labelBackgroundColor=none;strokeWidth=1;fontFamily=Verdana;fontSize=12;align=center;" vertex="1" parent="d5MMunfK_eNaK3rZYrZa-14">
          <mxGeometry x="45" y="270" width="10" height="270" as="geometry" />
        </mxCell>
        <mxCell id="d5MMunfK_eNaK3rZYrZa-16" value="Homepage" style="shape=umlLifeline;perimeter=lifelinePerimeter;whiteSpace=wrap;html=1;container=1;collapsible=0;recursiveResize=0;outlineConnect=0;rounded=1;shadow=0;comic=0;labelBackgroundColor=none;strokeWidth=1;fontFamily=Verdana;fontSize=12;align=center;" vertex="1" parent="1">
          <mxGeometry x="1650" y="180" width="100" height="580" as="geometry" />
        </mxCell>
        <mxCell id="d5MMunfK_eNaK3rZYrZa-17" value="" style="html=1;points=[];perimeter=orthogonalPerimeter;rounded=0;shadow=0;comic=0;labelBackgroundColor=none;strokeWidth=1;fontFamily=Verdana;fontSize=12;align=center;" vertex="1" parent="d5MMunfK_eNaK3rZYrZa-16">
          <mxGeometry x="45" y="330" width="10" height="200" as="geometry" />
        </mxCell>
        <mxCell id="d5MMunfK_eNaK3rZYrZa-18" value="Halaman Login" style="shape=umlLifeline;perimeter=lifelinePerimeter;whiteSpace=wrap;html=1;container=1;collapsible=0;recursiveResize=0;outlineConnect=0;rounded=1;shadow=0;comic=0;labelBackgroundColor=none;strokeWidth=1;fontFamily=Verdana;fontSize=12;align=center;" vertex="1" parent="1">
          <mxGeometry x="1170" y="180" width="100" height="580" as="geometry" />
        </mxCell>
        <mxCell id="d5MMunfK_eNaK3rZYrZa-19" value="" style="html=1;points=[];perimeter=orthogonalPerimeter;rounded=0;shadow=0;comic=0;labelBackgroundColor=none;strokeWidth=1;fontFamily=Verdana;fontSize=12;align=center;" vertex="1" parent="d5MMunfK_eNaK3rZYrZa-18">
          <mxGeometry x="45" y="100" width="10" height="440" as="geometry" />
        </mxCell>
        <mxCell id="d5MMunfK_eNaK3rZYrZa-20" value="6. Tampilkan pesan kesalahan" style="html=1;verticalAlign=bottom;endArrow=open;dashed=1;endSize=8;labelBackgroundColor=none;fontFamily=Verdana;fontSize=12;edgeStyle=elbowEdgeStyle;elbow=vertical;entryX=-0.3;entryY=0.55;entryDx=0;entryDy=0;entryPerimeter=0;" edge="1" parent="1">
          <mxGeometry relative="1" as="geometry">
            <mxPoint x="1212" y="571" as="targetPoint" />
            <Array as="points">
              <mxPoint x="1350.5" y="571.22" />
            </Array>
            <mxPoint x="1460" y="571" as="sourcePoint" />
          </mxGeometry>
        </mxCell>
        <mxCell id="d5MMunfK_eNaK3rZYrZa-21" value="1. login from" style="html=1;verticalAlign=bottom;endArrow=block;labelBackgroundColor=none;fontFamily=Verdana;fontSize=12;edgeStyle=elbowEdgeStyle;elbow=vertical;exitX=1;exitY=0.095;exitDx=0;exitDy=0;exitPerimeter=0;" edge="1" parent="1" source="d5MMunfK_eNaK3rZYrZa-23" target="d5MMunfK_eNaK3rZYrZa-18">
          <mxGeometry relative="1" as="geometry">
            <mxPoint x="1340" y="190" as="sourcePoint" />
          </mxGeometry>
        </mxCell>
        <mxCell id="d5MMunfK_eNaK3rZYrZa-22" value="Petugas" style="shape=umlActor;verticalLabelPosition=bottom;verticalAlign=top;html=1;outlineConnect=0;" vertex="1" parent="1">
          <mxGeometry x="1010" y="170" width="30" height="60" as="geometry" />
        </mxCell>
        <mxCell id="d5MMunfK_eNaK3rZYrZa-23" value="" style="html=1;points=[];perimeter=orthogonalPerimeter;rounded=0;shadow=0;comic=0;labelBackgroundColor=none;strokeWidth=1;fontFamily=Verdana;fontSize=12;align=center;" vertex="1" parent="1">
          <mxGeometry x="1020" y="260" width="10" height="470" as="geometry" />
        </mxCell>
        <mxCell id="d5MMunfK_eNaK3rZYrZa-24" value="2. Menekan tombol login" style="html=1;verticalAlign=bottom;endArrow=block;labelBackgroundColor=none;fontFamily=Verdana;fontSize=12;edgeStyle=elbowEdgeStyle;elbow=vertical;exitX=1.1;exitY=0.295;exitDx=0;exitDy=0;exitPerimeter=0;" edge="1" parent="1">
          <mxGeometry relative="1" as="geometry">
            <mxPoint x="1030" y="360" as="sourcePoint" />
            <mxPoint x="1218.5" y="360.15" as="targetPoint" />
          </mxGeometry>
        </mxCell>
        <mxCell id="d5MMunfK_eNaK3rZYrZa-25" value="3. verifikasi akun" style="html=1;verticalAlign=bottom;endArrow=block;labelBackgroundColor=none;fontFamily=Verdana;fontSize=12;edgeStyle=elbowEdgeStyle;elbow=vertical;" edge="1" parent="1" target="d5MMunfK_eNaK3rZYrZa-14">
          <mxGeometry relative="1" as="geometry">
            <mxPoint x="1240" y="470" as="sourcePoint" />
            <mxPoint x="1240" y="367" as="targetPoint" />
            <Array as="points">
              <mxPoint x="1220" y="470" />
            </Array>
          </mxGeometry>
        </mxCell>
        <mxCell id="d5MMunfK_eNaK3rZYrZa-26" value="5. tampilkan homepage" style="html=1;verticalAlign=bottom;endArrow=block;labelBackgroundColor=none;fontFamily=Verdana;fontSize=12;edgeStyle=elbowEdgeStyle;elbow=vertical;exitX=1.033;exitY=0.342;exitDx=0;exitDy=0;exitPerimeter=0;" edge="1" parent="1" source="d5MMunfK_eNaK3rZYrZa-15" target="d5MMunfK_eNaK3rZYrZa-16">
          <mxGeometry relative="1" as="geometry">
            <mxPoint x="1475" y="629.5800000000002" as="sourcePoint" />
            <mxPoint x="1710.85" y="629.92" as="targetPoint" />
            <Array as="points">
              <mxPoint x="1490" y="542" />
            </Array>
          </mxGeometry>
        </mxCell>
        <mxCell id="d5MMunfK_eNaK3rZYrZa-27" value="4. pemilihan pengguna" style="html=1;verticalAlign=bottom;endArrow=block;labelBackgroundColor=none;fontFamily=Verdana;fontSize=12;edgeStyle=elbowEdgeStyle;elbow=vertical;exitX=1.15;exitY=0.525;exitDx=0;exitDy=0;exitPerimeter=0;entryX=0.337;entryY=0.222;entryDx=0;entryDy=0;entryPerimeter=0;" edge="1" parent="1" source="d5MMunfK_eNaK3rZYrZa-19" target="d5MMunfK_eNaK3rZYrZa-15">
          <mxGeometry relative="1" as="geometry">
            <mxPoint x="1230" y="504.57" as="sourcePoint" />
            <mxPoint x="1450" y="510" as="targetPoint" />
            <Array as="points">
              <mxPoint x="1230" y="510" />
            </Array>
          </mxGeometry>
        </mxCell>
        <mxCell id="d5MMunfK_eNaK3rZYrZa-28" value="sistem" style="shape=umlLifeline;perimeter=lifelinePerimeter;whiteSpace=wrap;html=1;container=1;collapsible=0;recursiveResize=0;outlineConnect=0;rounded=1;shadow=0;comic=0;labelBackgroundColor=none;strokeWidth=1;fontFamily=Verdana;fontSize=12;align=center;" vertex="1" parent="1">
          <mxGeometry x="2310" y="195" width="100" height="580" as="geometry" />
        </mxCell>
        <mxCell id="d5MMunfK_eNaK3rZYrZa-29" value="" style="html=1;points=[];perimeter=orthogonalPerimeter;rounded=0;shadow=0;comic=0;labelBackgroundColor=none;strokeWidth=1;fontFamily=Verdana;fontSize=12;align=center;" vertex="1" parent="d5MMunfK_eNaK3rZYrZa-28">
          <mxGeometry x="45" y="270" width="10" height="270" as="geometry" />
        </mxCell>
        <mxCell id="d5MMunfK_eNaK3rZYrZa-30" value="Homepage" style="shape=umlLifeline;perimeter=lifelinePerimeter;whiteSpace=wrap;html=1;container=1;collapsible=0;recursiveResize=0;outlineConnect=0;rounded=1;shadow=0;comic=0;labelBackgroundColor=none;strokeWidth=1;fontFamily=Verdana;fontSize=12;align=center;" vertex="1" parent="1">
          <mxGeometry x="2550" y="195" width="100" height="580" as="geometry" />
        </mxCell>
        <mxCell id="d5MMunfK_eNaK3rZYrZa-31" value="" style="html=1;points=[];perimeter=orthogonalPerimeter;rounded=0;shadow=0;comic=0;labelBackgroundColor=none;strokeWidth=1;fontFamily=Verdana;fontSize=12;align=center;" vertex="1" parent="d5MMunfK_eNaK3rZYrZa-30">
          <mxGeometry x="45" y="330" width="10" height="200" as="geometry" />
        </mxCell>
        <mxCell id="d5MMunfK_eNaK3rZYrZa-32" value="Halaman Login" style="shape=umlLifeline;perimeter=lifelinePerimeter;whiteSpace=wrap;html=1;container=1;collapsible=0;recursiveResize=0;outlineConnect=0;rounded=1;shadow=0;comic=0;labelBackgroundColor=none;strokeWidth=1;fontFamily=Verdana;fontSize=12;align=center;" vertex="1" parent="1">
          <mxGeometry x="2070" y="195" width="100" height="580" as="geometry" />
        </mxCell>
        <mxCell id="d5MMunfK_eNaK3rZYrZa-33" value="" style="html=1;points=[];perimeter=orthogonalPerimeter;rounded=0;shadow=0;comic=0;labelBackgroundColor=none;strokeWidth=1;fontFamily=Verdana;fontSize=12;align=center;" vertex="1" parent="d5MMunfK_eNaK3rZYrZa-32">
          <mxGeometry x="45" y="100" width="10" height="440" as="geometry" />
        </mxCell>
        <mxCell id="d5MMunfK_eNaK3rZYrZa-34" value="6. Tampilkan pesan kesalahan" style="html=1;verticalAlign=bottom;endArrow=open;dashed=1;endSize=8;labelBackgroundColor=none;fontFamily=Verdana;fontSize=12;edgeStyle=elbowEdgeStyle;elbow=vertical;entryX=-0.3;entryY=0.55;entryDx=0;entryDy=0;entryPerimeter=0;" edge="1" parent="1">
          <mxGeometry relative="1" as="geometry">
            <mxPoint x="2112" y="586" as="targetPoint" />
            <Array as="points">
              <mxPoint x="2250.5" y="586.22" />
            </Array>
            <mxPoint x="2360" y="586" as="sourcePoint" />
          </mxGeometry>
        </mxCell>
        <mxCell id="d5MMunfK_eNaK3rZYrZa-35" value="1. login from" style="html=1;verticalAlign=bottom;endArrow=block;labelBackgroundColor=none;fontFamily=Verdana;fontSize=12;edgeStyle=elbowEdgeStyle;elbow=vertical;exitX=1;exitY=0.095;exitDx=0;exitDy=0;exitPerimeter=0;" edge="1" parent="1" source="d5MMunfK_eNaK3rZYrZa-37" target="d5MMunfK_eNaK3rZYrZa-32">
          <mxGeometry relative="1" as="geometry">
            <mxPoint x="2240" y="205" as="sourcePoint" />
          </mxGeometry>
        </mxCell>
        <mxCell id="d5MMunfK_eNaK3rZYrZa-36" value="admin" style="shape=umlActor;verticalLabelPosition=bottom;verticalAlign=top;html=1;outlineConnect=0;" vertex="1" parent="1">
          <mxGeometry x="1910" y="185" width="30" height="60" as="geometry" />
        </mxCell>
        <mxCell id="d5MMunfK_eNaK3rZYrZa-37" value="" style="html=1;points=[];perimeter=orthogonalPerimeter;rounded=0;shadow=0;comic=0;labelBackgroundColor=none;strokeWidth=1;fontFamily=Verdana;fontSize=12;align=center;" vertex="1" parent="1">
          <mxGeometry x="1920" y="275" width="10" height="470" as="geometry" />
        </mxCell>
        <mxCell id="d5MMunfK_eNaK3rZYrZa-38" value="2. Menekan tombol login" style="html=1;verticalAlign=bottom;endArrow=block;labelBackgroundColor=none;fontFamily=Verdana;fontSize=12;edgeStyle=elbowEdgeStyle;elbow=vertical;exitX=1.1;exitY=0.295;exitDx=0;exitDy=0;exitPerimeter=0;" edge="1" parent="1">
          <mxGeometry relative="1" as="geometry">
            <mxPoint x="1930" y="375" as="sourcePoint" />
            <mxPoint x="2118.5" y="375.15" as="targetPoint" />
          </mxGeometry>
        </mxCell>
        <mxCell id="d5MMunfK_eNaK3rZYrZa-39" value="3. verifikasi akun" style="html=1;verticalAlign=bottom;endArrow=block;labelBackgroundColor=none;fontFamily=Verdana;fontSize=12;edgeStyle=elbowEdgeStyle;elbow=vertical;" edge="1" parent="1" target="d5MMunfK_eNaK3rZYrZa-28">
          <mxGeometry relative="1" as="geometry">
            <mxPoint x="2140" y="485" as="sourcePoint" />
            <mxPoint x="2140" y="382" as="targetPoint" />
            <Array as="points">
              <mxPoint x="2120" y="485" />
            </Array>
          </mxGeometry>
        </mxCell>
        <mxCell id="d5MMunfK_eNaK3rZYrZa-40" value="5. tampilkan homepage" style="html=1;verticalAlign=bottom;endArrow=block;labelBackgroundColor=none;fontFamily=Verdana;fontSize=12;edgeStyle=elbowEdgeStyle;elbow=vertical;exitX=1.033;exitY=0.342;exitDx=0;exitDy=0;exitPerimeter=0;" edge="1" parent="1" source="d5MMunfK_eNaK3rZYrZa-29" target="d5MMunfK_eNaK3rZYrZa-30">
          <mxGeometry relative="1" as="geometry">
            <mxPoint x="2375" y="644.5800000000002" as="sourcePoint" />
            <mxPoint x="2610.85" y="644.92" as="targetPoint" />
            <Array as="points">
              <mxPoint x="2390" y="557" />
            </Array>
          </mxGeometry>
        </mxCell>
        <mxCell id="d5MMunfK_eNaK3rZYrZa-41" value="4. pemilihan pengguna" style="html=1;verticalAlign=bottom;endArrow=block;labelBackgroundColor=none;fontFamily=Verdana;fontSize=12;edgeStyle=elbowEdgeStyle;elbow=vertical;exitX=1.15;exitY=0.525;exitDx=0;exitDy=0;exitPerimeter=0;entryX=0.337;entryY=0.222;entryDx=0;entryDy=0;entryPerimeter=0;" edge="1" parent="1" source="d5MMunfK_eNaK3rZYrZa-33" target="d5MMunfK_eNaK3rZYrZa-29">
          <mxGeometry relative="1" as="geometry">
            <mxPoint x="2130" y="519.5699999999999" as="sourcePoint" />
            <mxPoint x="2350" y="525" as="targetPoint" />
            <Array as="points">
              <mxPoint x="2130" y="525" />
            </Array>
          </mxGeometry>
        </mxCell>
        <mxCell id="d5MMunfK_eNaK3rZYrZa-42" value="&lt;span style=&quot;font-size: 17px;&quot;&gt;Login Masyarakat&lt;/span&gt;" style="text;html=1;align=center;verticalAlign=middle;resizable=0;points=[];autosize=1;strokeColor=none;fillColor=none;" vertex="1" parent="1">
          <mxGeometry x="410" y="78" width="160" height="30" as="geometry" />
        </mxCell>
        <mxCell id="d5MMunfK_eNaK3rZYrZa-43" value="&lt;div style=&quot;&quot;&gt;&lt;span style=&quot;background-color: transparent; color: light-dark(rgb(0, 0, 0), rgb(255, 255, 255)); font-size: 17px; text-wrap-mode: nowrap;&quot;&gt;Login Petugas&lt;/span&gt;&lt;/div&gt;" style="text;whiteSpace=wrap;html=1;align=center;" vertex="1" parent="1">
          <mxGeometry x="1375" y="80" width="170" height="40" as="geometry" />
        </mxCell>
        <mxCell id="d5MMunfK_eNaK3rZYrZa-44" value="&lt;div style=&quot;&quot;&gt;&lt;span style=&quot;background-color: transparent; color: light-dark(rgb(0, 0, 0), rgb(255, 255, 255)); font-size: 17px; text-wrap-mode: nowrap;&quot;&gt;Login Admin&lt;/span&gt;&lt;/div&gt;" style="text;whiteSpace=wrap;html=1;align=center;" vertex="1" parent="1">
          <mxGeometry x="2275" y="80" width="170" height="40" as="geometry" />
        </mxCell>
      </root>
    </mxGraphModel>
  </diagram>
</mxfile>
